<?xml version="1.0" encoding="utf-8"?>
<!-- Generator: Adobe Illustrator 18.1.1, SVG Export Plug-In . SVG Version: 6.00 Build 0)  -->
<svg version="1.1" id="Layer_1" xmlns="http://www.w3.org/2000/svg" xmlns:xlink="http://www.w3.org/1999/xlink" x="0px" y="0px"
	 viewBox="0 0 410.7 75.5" enable-background="new 0 0 410.7 75.5" xml:space="preserve">
<g>
	<path fill="#FFFFFF" d="M269.7,71c-1.3,0.1-2.5,0.3-3.6,0.3c-1.4,0-1.8-0.7-1.2-2c0.3-0.7,0.8-1.3,1.3-1.8
		c4.3-4.1,6.3-9.3,6.6-15.1c0.5-10.1,1-20.3,1.2-30.5c0.1-3.3-0.6-6.6-1.4-9.8c-0.6-2.1-2.1-4-3-6.1c-0.4-0.9-0.8-2.3-0.4-2.9
		c1-1.3,2.5-2.2,3.8-3.2c0.1-0.1,0.6,0.1,0.7,0.2c0.9,2,2.8,1.9,4.5,2.4c1.4,0.4,1.7,1.2,1.6,2.7c-0.3,3-0.4,6.1-0.3,9.1
		c0.2,5.5,0.6,11.1,0.8,16.6c0,1.2-0.5,2.5-0.8,3.7c-0.4,1.6-1.1,3.1-1,4.7c0.1,7.2,0.4,14.5,0.8,21.7c0.1,2.8,0.8,3.3,3.6,2.8
		c1.8-0.3,3.5-0.9,5.2-1.6c4.2-1.8,8.4-3,13-3.1c0.8,0,1.7,0.2,3,0.4c-0.8,1.1-1.3,1.8-1.8,2.5c2.5,2.4,7.2,2.3,9.5-0.2
		c0.8-0.8,1.5-1.7,2.4-2.5c1.8-1.5,3.6-1,4.5,1.1c0.4,0.9,0.8,1.8,1.2,2.7c0.2,0,0.5-0.1,0.7-0.1c0.2-0.7,0.5-1.3,0.6-2
		c0.2-1.5,1-1.8,2.3-1.3c2.3,0.8,3.8,2.5,4.9,4.6c0.7,1.5,0.2,2.7-1.6,3c-2.2,0.5-4.1,1.1-5.4,3.1c-0.8,1.2-2.2,0.7-2.7-0.6
		c-0.6-1.5-1.6-1.6-2.9-1.5c-3.2,0.3-6.5,0.4-9.7,0.7c-5.9,0.5-11.7,1.2-17.6,1.4c-3.7,0.1-6.7,1.8-9.9,3.1
		c-1.9,0.7-3.9,1.1-5.9,1.5c-2.2,0.4-2.9-0.3-2.6-2.5C269.7,72.3,269.7,71.8,269.7,71z"/>
	<path fill="#FFFFFF" d="M0,70.4c0.6-0.9,1-1.9,1.7-2.6c4.4-4.7,6.3-10.2,6.8-16.5C9.3,39.6,10,27.9,8.7,16.3
		C8.3,12.6,7.4,9.1,4.9,6.2c-1.2-1.4-1.3-2.8,0.3-4c1.1-0.9,2.3-1.8,3.4-2.7c0,0.3,0,0.5,0.1,0.8c1.3,0.6,2.6,1.5,4,1.9
		c1.8,0.5,2.3,1.1,2.3,3.2c0,8.3,0.4,16.6,0.5,25c0,1.4-0.4,2.8-0.7,4.1c-0.3,1.7-1.1,3.4-1,5.1c0.2,7.4,0.7,14.9,1,22.3
		c0.1,1.8,1.1,2.5,2.7,2.1c2.1-0.5,4.1-1.2,6.2-1.7c4-1,7.9-2.1,11.9-3c1-0.2,2.2,0.1,3.9,0.2c-0.8,1.1-1.3,1.8-1.7,2.4
		c1.7,2.1,6.2,2.6,8.3,0.8c1.1-1,2.1-2.1,3.2-3.1c2-1.8,3.8-1.3,4.7,1.2c0.1,0.4,0.2,0.8,0.4,1.1c0.3,0.4,0.8,0.7,1.3,1.1
		c0.2-0.4,0.6-0.9,0.7-1.3c0.4-2.1,1.3-2.7,3.1-1.5c1.6,1.1,2.9,2.6,4.1,4.1c0.9,1.3,0.3,2.6-1.2,3c-2.2,0.7-4.4,1-5.8,3.3
		c-0.6,1-2.1,0.5-2.6-0.7c-0.7-1.5-1.7-1.5-3.1-1.5c-6,0.4-12,0.5-18.1,0.9c-4.4,0.4-8.9,1.1-13.3,1.7c-0.8,0.1-1.6,0.7-2.4,1
		c-3,1-6,2.2-9,3c-2.3,0.6-2.8,0-2.6-2.3c0.2-1.6-0.2-2.3-2-1.9c-0.9,0.2-1.9,0-2.9,0C0.2,70.8,0.1,70.6,0,70.4z"/>
	<path fill="#FFFFFF" d="M368.5,32.9c0.8-0.3,1.4-0.3,1.8-0.6c0.9-0.7,2-1.3,2.5-2.2c1.7-3.2,3-6.6,4.8-9.7c3-5.3,6.7-10.1,12.2-13
		c2.5-1.4,5-1.1,7,1.1c1.2,1.3,2.4,2.5,3.6,3.9c1.9,2,2.6,4.5,2.7,7.2c0.1,4.3,0.5,8.7,0.5,13c0,4.3-1.3,5.2-5.5,4
		c-5.7-1.7-11.4-2.3-17.3-1.2c-5.3,0.9-7.6,5.6-4.9,10.3c1.2,2.1,3,4.1,5,5.4c5.2,3.6,13.3,3.1,18.2-0.7c2.3-1.8,4.5-3.7,6.6-5.6
		c1.1-1,1.8-1.2,2.7,0.2c0.6,1,1.5,1.9,2.1,3c0.2,0.4,0.1,1,0.1,1.5c-0.5,0-1.2,0.2-1.4,0c-1.2-1.1-2.1-0.7-3.2,0.3
		c-0.5,0.5-1.3,0.6-1.9,1.1c-1.7,1.3-3.3,2.9-5.1,4.1c-2.1,1.4-4.4,2.5-6.7,3.5c-1.4,0.6-3,0.6-4.6,0.8c-4.5,0.7-8.1-1.2-11.2-4.3
		c-0.8-0.8-1.4-1.7-2.1-2.5c-3.5-3.8-5.3-8-4.4-13.4C370.4,37,371,34.6,368.5,32.9z M392.8,10.9c-1.9-0.1-3.8,0.7-5.4,2.2
		c-4.5,4.5-7.6,9.8-9.4,15.9c-0.4,1.5,0.1,2,1.5,2.1c2.2,0.1,4.3,0,6.5,0.1c1.6,0.1,3.2,0.5,4.7,0.9c2,0.5,4,1.2,6,1.5
		c1.2,0.2,3.9-1.9,4-2.8c0.4-3.7-0.7-7.2-1.8-10.7c-0.1-0.3-0.6-0.7-1-0.8c-1.4-0.5-1-1.2-0.5-2.2c0.4-0.8,0.8-1.9,0.6-2.7
		C397.4,11.8,396,10.8,392.8,10.9z"/>
	<path fill="#FFFFFF" d="M231.4,45.4c0.4-3.3,0.9-6.6,1.1-10c0.4-7.9,0.9-15.8,1-23.7c0-1.3-1.4-2.6-2.3-3.9
		c-0.2-0.2-0.6-0.3-0.9-0.4c0.1-0.2,0.2-0.5,0.3-0.7c0.8,0,1.6-0.1,2.4-0.1c2.1-0.1,4.1-0.3,6.2-0.2c1.1,0,2.1,0.5,3.2,0.8
		c0,0.4,0,0.6-0.1,0.7c-4.1,2.6-4.1,7.1-4.7,11.1c-1.3,10.1-2.2,20.2-3.2,30.3c-0.1,1.4,0.4,3,0.9,4.4c0.5,1.4,0.1,2.5-1.4,2.7
		c-0.7,0.1-1.4,0-2,0.1c-1.5,0.1-2.3-0.5-2.1-2.1c0.3-2.5-0.6-4.6-2.2-6.3c-5.3-5.7-8.8-12.5-12.9-18.9c-2.3-3.6-3.8-7.6-5.7-11.4
		c-0.1-0.2-0.3-0.4-0.5-0.7c-0.1,0.2-0.3,0.2-0.3,0.3c-0.2,10.6-0.9,21.3,0.5,31.9c0.2,1.5,1,2.9,1.4,4.3c0.2,0.5,0.2,1.1,0.2,1.7
		c-0.5,0-1,0.1-1.5,0c-3.1-0.7-6.2-1.3-9.2-2.1c-0.6-0.1-1-0.7-1.6-1.1c0.5-0.4,1-1.2,1.6-1.3c1.7-0.3,3.4-0.3,5.6-0.5
		c0-3.2,0.1-6.3,0-9.4c-0.3-8.1-0.7-16.1-1.2-24.2c-0.1-0.9-0.7-1.8-1.1-2.6c-0.2-0.5-0.7-1-0.6-1.3c0.4-1.8-0.5-1.8-1.9-2.2
		c-1.1-0.3-2.2-1.5-2.7-2.7c-0.2-0.5,1.1-1.8,1.9-2.4c0.8-0.6,1.8-0.6,2.4,0.8c0.2,0.7,1.3,1.1,2,1.5c0.8,0.3,1.7,0.4,2.6,0.5
		c3.4,0.8,3.2,0.8,3.7,4.2c0.3,2,1.2,4,2.2,5.8c1.6,2.8,3.5,5.5,5.3,8.2c3.6,5.5,7.2,11.1,10.8,16.6c0.6,0.9,1.3,1.6,2,2.4
		C230.8,45.6,231.1,45.5,231.4,45.4z"/>
	<path fill="#FFFFFF" d="M98.4,26.7c1.7-1.8,4.9-1.4,6.1,0.8c0.2,0.4,0.9,0.7,1.5,0.7c2.6,0.2,5.2,0.1,7.7,0.5
		c3.4,0.4,6.2-1.3,9.3-2.1c0.7-0.2,1.3-0.3,2-0.4c0.2,0.2,0.3,0.5,0.5,0.7c-1,1-1.9,2.1-3,2.9c-1.4,0.9-2,2-2.4,3.6
		c-0.7,3.4-1.5,6.8-2.4,10.2c-0.5,2-2,3.2-3.9,3.7c-0.2,0.1-0.4,0.1-0.6,0.2c-4.1,3.6-8.9,2.5-13.6,2c-3.8-0.4-7.5-1.2-11.2-1.9
		c-1-0.2-2-0.7-3.1-1.1c-1.2-0.4-1.9-1-1.5-2.6c0.2-0.9,0-2.3-0.6-3.1c-1.7-2.6-2.1-5.4-2.4-8.3c-0.5-5-0.7-10,0.8-14.9
		c0.4-1.2,1.1-2.3,1.9-3.3c4.8-5.7,10.9-9.6,18-11.9c0.5-0.2,1.1-0.5,1.5-1c1.3-1.5,3-1.6,4-0.1c0.7,1.1,1.5,1.2,2.7,1.2
		c3.1-0.2,6.5,2.5,7,5.4c0.1,0.8-0.3,1.6-0.5,2.4c-0.7-0.2-1.5-0.2-2.2-0.6c-3.1-1.4-6-3.6-9.1-4.1C97.1,4.5,90.2,9.2,86.8,17
		c-2.5,5.7-3.3,11.6-2.2,17.8c0.8,4.1,3.2,6.9,7.1,8.2c6.4,2,12.9,1.8,19.3,0.5c4.4-0.9,6.6-4.3,6.2-8.5c-0.2-2.4-0.9-3-3.2-2.9
		c-3,0.1-5.9,0.5-8.9,0.6c-3.4,0.2-3.5-0.1-4.5-3.4C100.3,28.3,99.2,27.7,98.4,26.7z"/>
	<path fill="#FFFFFF" d="M33.1,48.3c0.3-2.3,0.4-4.3,0.7-6.2c0.1-0.4,0.7-0.7,1.2-0.9c1.8-1,3.1-2.4,3.9-4.5c0.7-1.8,1.9-3.4,3-5
		c4.4-6.5,9-12.9,13.3-19.5c0.6-0.8,0.4-2.1,0.6-3.2c0-0.2-0.2-0.4-0.1-0.6c0.9-2.1,1.9-4.2,2.6-5.9c0.9,1.2,1.9,2.3,2.7,3.5
		c0.5,0.7,0.9,1.5,1.1,2.3c1.5,6,2.9,12.1,4.5,18.1c0.6,2.1,2,4,2.7,6.1c0.5,1.5,0.5,3.2,0.7,4.8c0.2,1.1,0.3,2.1,0.6,3.2
		c0.2,0.8,0.7,1.5,0.8,2.3c0.7,3.7,2,6.9,6,8.3c0,0.2-0.1,0.4-0.1,0.6c-2.4,0.6-4.7,1.3-7.2,1.7c-1.2,0.2-1.5-0.3-1.6-1.8
		c0-2.9-0.7-5.7-1-8.6c-0.6-4.3-2.8-6.6-7.2-7.6c-3.1-0.7-6-2.4-8.9-3.8c-1.7-0.8-3.2-0.9-4.4,0.5c-2.2,2.6-4.3,5.4-6.5,8
		c-2.1,2.6-4.3,5.2-6.5,7.7C34.1,48.1,33.9,48.1,33.1,48.3z M63.3,28.8c-0.6-3.2-1-6.4-1.8-9.5c-0.5-2.1-1.6-2.3-3-0.7
		c-2.1,2.5-4.1,5.2-5.9,7.9c-0.3,0.4,0,1.8,0.4,1.9c2.5,1.1,5.1,2.2,7.8,2.8C62.8,31.6,63.2,31,63.3,28.8z"/>
	<path fill="#FFFFFF" d="M180.8,50.4c-2.7,0.5-4.2-0.6-5.8-2.9c-2-2.8-4.6-5.1-7.1-7.4c-1.3-1.2-2-2.1-1.2-4.1
		c0.9-2.6,1-5.4,1.7-8.1c0.6-2.1,1.7-4.1,2.5-6.2c0.6-1.6,1.4-3.1,1.7-4.7c0.3-1.7,1.2-2.6,2.7-3.1c1.2-0.4,2.3-1,3.5-1.5
		c0.3-0.1,0.8-0.3,1.1-0.2c2.6,0.7,5.2,1.3,7.7,2.3c2.9,1.2,5.8,2.6,8.4,4.3c1.4,0.9,2.6,2.5,3.1,4.1c1.2,3.1,1.9,6.5,2.8,9.7
		c0.2,0.6,0.2,1.3,0.2,2c-0.4,5.4-7.1,13.5-12.3,14.6C186.9,49.9,183.8,50.1,180.8,50.4z M171.7,34.6c-0.2,2.7,1.2,6.4,3.7,9.7
		c4.8,6.3,15.5,3.8,17.2-2.4c0.9-3.4,1.9-6.9,2.4-10.4c1.2-8.2,0.2-10.3-8.3-13.5c-1.7-0.6-4.3-0.6-5.6,0.3
		C175.9,21.8,171.6,26.1,171.7,34.6z"/>
	<path fill="#FFFFFF" d="M142.1,47.8c-1.8,0.4-2.9-0.4-4.2-2.1c-2.3-3-5.1-5.6-7.8-8.3c-1.2-1.2-1.7-2-1.1-3.8
		c0.9-2.7,1-5.6,1.7-8.3c0.5-2.1,1.5-4,2.3-6c0.6-1.7,1.1-3.5,1.9-5.1c0.5-1,1.3-2,2.2-2.6c1.2-0.8,2.6-1.2,3.9-1.7
		c0.4-0.1,0.9-0.2,1.3-0.1c1.8,0.5,3.5,0.9,5.2,1.5c2.2,0.7,4.4,1.3,6.5,2.2c4.6,2,7.6,5.3,8.7,10.3c0.1,0.3,0.1,0.7,0.3,1
		c3.4,8.1-0.6,14-5.8,19.4c-2.4,2.5-5.9,2.9-9.2,3.2C146.2,47.6,144.3,47.7,142.1,47.8z M158.1,25.7c-0.5-2.5-0.1-5.1-2.4-6.7
		c-2.2-1.6-4.7-2.9-7.3-3.9c-2.4-0.9-4.9-0.2-6.8,1.6c-1.5,1.5-2.8,3.1-4.3,4.6c-5.2,5.4-3.7,17,2.1,21.9c4.7,3.9,13.1,2.2,15.2-3.7
		C156.2,35.2,156.9,30.4,158.1,25.7z"/>
	<path fill="#FFFFFF" d="M331.6,7.5c1.4,0.3,2.6,0.9,3.7,0.9c5.6-0.1,11.2-0.3,16.8-0.4c1.8,0,3.5,0.2,5.3,0.2c1.7,0,3.3-0.1,5-0.4
		c1.6-0.2,3-0.4,5,1.1c-3,0.8-4.4,3.5-7.4,3.3c-1.9-0.1-3.8-0.2-5.7-0.4c-5.5-0.6-11,0.1-16.4,1.1c-0.5,0.1-1.1,0.8-1.2,1.2
		c-0.3,4.5-0.6,8.9-0.7,13.4c-0.1,2.3,0.7,3,2.9,3c3.9-0.1,7.9,0.4,11.4-2c0.9-0.6,1.5-0.2,1.7,1c0.2,1.2,1,2.4,1.5,3.6
		c0.2,0.5,0.8,1.2,0.6,1.5c-0.4,0.5-1.1,1.2-1.7,1.2c-1.2,0.1-2.4-0.1-3.6-0.4c-4.1-1.1-8.1-0.3-12,0.8c-0.5,0.1-0.9,1.2-0.9,1.9
		c-0.2,4.2-0.3,8.4-0.5,12.6c0,0.9-0.1,1.9-0.4,2.8c-0.3,0.7-0.9,1.2-1.4,1.8c-0.3-0.6-1-1.3-1-1.9c-0.3-4.8-0.7-9.6-0.7-14.4
		c0-6.3,0.2-12.5,0.3-18.8c0-1.4-0.5-2.8-0.6-4.2C331.6,13.1,331.6,10.2,331.6,7.5z"/>
	<path fill="#FFFFFF" d="M314.4,20.9c-1.1,1.9-2,3.6-4.1,4c-0.5,0.1-1,1.2-1,1.8c-0.1,4.6-0.2,9.2-0.2,13.8c0,1.3,0.1,2.6,0.1,3.9
		c0,5.2,0,5.1,5,6.5c0.9,0.3,1.7,1,2.9,1.8c-2.5,0.9-4.5,1.6-6.4,2.2c-0.2,0.1-0.5,0-0.6-0.1c-3-2.2-6.6-1-9.9-1.7
		c-0.3-0.1-0.7,0-1-0.2c-0.6-0.4-1.1-0.9-1.7-1.3c0.5-0.4,1-1.2,1.6-1.3c1.9-0.4,3.9-0.6,5.9-0.8c0.1-1.2,0.2-2.3,0.2-3.5
		c0.2-5.3,0.3-10.7,0.5-16c0.1-2.4-0.2-4.7-1.6-6.8c-0.3-0.5-0.4-1.1-0.6-1.6C307.2,21.5,310.6,21.2,314.4,20.9z"/>
	<path fill="#FFFFFF" d="M299,9.3c0.5,0.2,1.3,0.3,1.9,0.8c1.8,1.3,4.3,0.9,5.7-0.9c0.3-0.4,0.9-0.8,1.3-0.7c2.5,0.7,5,1.5,7.5,2.4
		c2,0.7,2.2,1.4,1,3.1c-2.4,3.6-9.1,4.6-12.3,1.7c-1.1-0.9-1.9-0.5-2.9,0.1c-0.8,0.5-1.8,0.8-2.9,1.4C298.5,14.3,298.7,12,299,9.3z"
		/>
	<path fill="#FFFFFF" d="M248.1,38.6c0.7-0.3,1.4-0.9,2.2-0.8c3.7,0,7.4,0.2,11.1,0.4c2.2,0.1,2,1.9,2.1,3.3c0,0.4-1.4,1.2-2.2,1.3
		c-3.9,0.5-7.8,0.7-11.7,1.1c-2.1,0.2-4.1,0-4.9-2.3c-0.4-1.1,0-2.4,0.1-3.6c1.1,0.1,2.2,0.2,3.2,0.3
		C248,38.3,248.1,38.4,248.1,38.6z"/>
</g>
</svg>
